#!OML:ASF G:\JayActor3\Patient Classification 1\Patient 1\Session 6\male.ASF
:FULLY-SPECIFIED
:DEGREES
3141
root 1.48358 16.5925 -4.55778 174.514 -50.6355 -171.574
lowerback 0.348132 -1.47546 3.07981
upperback 2.86044 -2.04355 -0.494372
thorax 2.62007 -0.962354 -2.2714
lowerneck -4.68377 2.02857 2.85285
upperneck -1.74375 2.35947 6.12965
head 0.198957 1.11199 1.45132
rclavicle -2.95195e-014 -1.03368e-014
rhumerus -46.3387 1.98069 -86.66
rradius 40.3732
rwrist -0.837842
rhand -18.3876 -4.15629
rfingers 7.12502
rthumb 7.89623 -33.9888
lclavicle -2.95195e-014 -1.03368e-014
lhumerus -29.209 9.92686 76.7093
lradius 26.147
lwrist 15.621
lhand -16.7736 10.9343
lfingers 7.12502
lthumb 9.45384 40.7022
rfemur -6.48676 -1.6149 24.1768
rtibia 30.3269
rfoot -26.7822 -18.2265
rtoes 6.30724
lfemur -3.09816 9.62456 -10.7706
ltibia 20.3683
lfoot -21.1672 30.5658
ltoes 7.35102
3142
root 1.51073 16.5919 -4.59394 174.59 -50.554 -171.699
lowerback 0.313672 -1.50488 3.06845
upperback 2.85603 -2.0846 -0.448153
thorax 2.63442 -0.983417 -2.2191
lowerneck -4.68287 2.07082 2.93428
upperneck -1.61881 2.40861 6.01662
head 0.238448 1.14143 1.40356
rclavicle -9.10434e-014 2.06736e-014
rhumerus -46.4042 1.95558 -86.597
rradius 40.2639
rwrist -0.772803
rhand -18.3945 -4.15896
rfingers 7.12502
rthumb 7.8896 -33.9917
lclavicle -9.10434e-014 2.06736e-014
lhumerus -28.899 9.57627 77.024
lradius 26.5759
lwrist 15.8466
lhand -16.9026 10.8391
lfingers 7.12502
lthumb 9.32929 40.6126
rfemur -6.45218 -1.68023 24.2576
rtibia 30.3089
rfoot -26.7664 -18.1404
rtoes 6.38566
lfemur -2.99856 9.40873 -10.7025
ltibia 20.2846
lfoot -21.2292 30.8128
ltoes 7.59414
3143
root 1.53754 16.5913 -4.62981 174.701 -50.4777 -171.871
lowerback 0.280003 -1.534 3.03006
upperback 2.85102 -2.12461 -0.412207
thorax 2.64834 -1.00447 -2.16223
lowerneck -4.68457 2.11265 3.01315
upperneck -1.48958 2.45703 5.90645
head 0.279739 1.17067 1.35739
rclavicle 1.13307e-014 -3.18055e-015
rhumerus -46.4676 1.92943 -86.535
rradius 40.1553
rwrist -0.70487
rhand -18.3957 -4.15858
rfingers 7.12502
rthumb 7.88846 -33.9914
lclavicle 1.13307e-014 -3.18055e-015
lhumerus -28.5958 9.23007 77.3293
lradius 27.0114
lwrist 16.0743
lhand -17.0016 10.7392
lfingers 7.12502
lthumb 9.23379 40.517
rfemur -6.42232 -1.75747 24.2976
rtibia 30.308
rfoot -26.7418 -18.0445
rtoes 6.4219
lfemur -2.88336 9.20745 -10.669
ltibia 20.176
lfoot -21.2669 31.0526
ltoes 7.81141
3144
root 1.5641 16.5906 -4.66535 174.839 -50.4024 -172.078
lowerback 0.245448 -1.56166 2.97302
upperback 2.84596 -2.16222 -0.3841
thorax 2.66327 -1.02463 -2.10303
lowerneck -4.69137 2.1537 3.08792
upperneck -1.35733 2.50428 5.79873
head 0.322857 1.19948 1.31296
rclavicle -6.26172e-014 9.54166e-015
rhumerus -46.5278 1.90428 -86.4743
rradius 40.0522
rwrist -0.64097
rhand -18.3758 -4.17659
rfingers 7.12502
rthumb 7.9076 -34.0087
lclavicle -6.26172e-014 9.54166e-015
lhumerus -28.2916 8.87888 77.6282
lradius 27.4396
lwrist 16.3125
lhand -17.0694 10.634
lfingers 7.12502
lthumb 9.16842 40.4147
rfemur -6.39371 -1.84089 24.3073
rtibia 30.3101
rfoot -26.7038 -17.9454
rtoes 6.41378
lfemur -2.76891 9.01687 -10.6626
ltibia 20.0691
lfoot -21.2994 31.2855
ltoes 8.00991
3145
root 1.5905 16.5898 -4.70055 174.933 -50.3034 -172.229
lowerback 0.211935 -1.58294 2.95599
upperback 2.84379 -2.19226 -0.346237
thorax 2.68018 -1.04021 -2.05613
lowerneck -4.69999 2.19494 3.15841
upperneck -1.23122 2.55226 5.69242
head 0.364398 1.2284 1.26984
rclavicle -3.86636e-014 2.22639e-014
rhumerus -46.577 1.88284 -86.4136
rradius 39.9427
rwrist -0.58386
rhand -18.341 -4.16299
rfingers 7.12502
rthumb 7.94118 -33.9938
lclavicle -3.86636e-014 2.22639e-014
lhumerus -27.9813 8.52623 77.9219
lradius 27.854
lwrist 16.5563
lhand -17.1123 10.5384
lfingers 7.12502
lthumb 9.12702 40.3209
rfemur -6.36068 -1.89667 24.3593
rtibia 30.3034
rfoot -26.6592 -17.8564
rtoes 6.38775
lfemur -2.66109 8.84653 -10.6128
ltibia 19.9841
lfoot -21.3498 31.5118
ltoes 8.20514
3146
root 1.61667 16.5885 -4.73571 174.955 -50.1836 -172.293
lowerback 0.181041 -1.60055 2.99562
upperback 2.84331 -2.21873 -0.291969
thorax 2.69634 -1.05296 -2.02398
lowerneck -4.71043 2.23809 3.22698
upperneck -1.10788 2.60308 5.58412
head 0.405448 1.25861 1.22663
rclavicle 2.32578e-014 7.15625e-015
rhumerus -46.6173 1.86934 -86.3537
rradius 39.8302
rwrist -0.524897
rhand -18.2824 -4.14674
rfingers 7.12502
rthumb 7.9978 -33.9754
lclavicle 2.32578e-014 7.15625e-015
lhumerus -27.6774 8.16819 78.2104
lradius 28.2626
lwrist 16.8088
lhand -17.1415 10.4482
lfingers 7.12502
lthumb 9.0988 40.232
rfemur -6.31698 -1.91677 24.48
rtibia 30.2822
rfoot -26.6213 -17.7822
rtoes 6.38328
lfemur -2.56464 8.70318 -10.4938
ltibia 19.9313
lfoot -21.4056 31.7238
ltoes 8.39049
3147
root 1.6427 16.5869 -4.77044 174.953 -50.0622 -172.325
lowerback 0.149596 -1.62049 3.05841
upperback 2.84474 -2.249 -0.233289
thorax 2.71398 -1.06712 -2.00038
lowerneck -4.71926 2.28407 3.29357
upperneck -0.993572 2.65836 5.47573
head 0.443463 1.29062 1.18385
rclavicle -4.97956e-014 -2.38542e-015
rhumerus -46.6463 1.86341 -86.2972
rradius 39.7195
rwrist -0.462526
rhand -18.1934 -4.1523
rfingers 7.12502
rthumb 8.08371 -33.9777
lclavicle -4.97956e-014 -2.38542e-015
lhumerus -27.3825 7.81231 78.4871
lradius 28.6744
lwrist 17.0493
lhand -17.1482 10.4024
lfingers 7.12502
lthumb 9.09237 40.1864
rfemur -6.26472 -1.93544 24.6215
rtibia 30.2449
rfoot -26.5828 -17.7037
rtoes 6.39905
lfemur -2.48921 8.58518 -10.3505
ltibia 19.9157
lfoot -21.4531 31.9186
ltoes 8.54444
3148
root 1.66854 16.5852 -4.80469 174.941 -49.9354 -172.337
lowerback 0.112984 -1.64085 3.13737
upperback 2.84718 -2.28053 -0.171441
thorax 2.73506 -1.08153 -1.98281
lowerneck -4.73107 2.33179 3.36085
upperneck -0.885762 2.71626 5.36187
head 0.48012 1.32367 1.13941
rclavicle 7.81224e-014 -1.11319e-014
rhumerus -46.659 1.85846 -86.239
rradius 39.6002
rwrist -0.390354
rhand -18.1001 -4.15308
rfingers 7.12502
rthumb 8.17377 -33.975
lclavicle 7.81224e-014 -1.11319e-014
lhumerus -27.1001 7.47282 78.7491
lradius 29.0968
lwrist 17.2672
lhand -17.1171 10.4088
lfingers 7.12502
lthumb 9.12231 40.1915
rfemur -6.21169 -1.95769 24.7747
rtibia 30.1965
rfoot -26.5361 -17.6189
rtoes 6.42295
lfemur -2.43329 8.49509 -10.1921
ltibia 19.9277
lfoot -21.4864 32.1005
ltoes 8.66558
3149
root 1.694 16.5833 -4.83844 174.926 -49.8044 -172.344
lowerback 0.0773769 -1.66151 3.2255
upperback 2.84687 -2.31261 -0.109462
thorax 2.75239 -1.09609 -1.97016
lowerneck -4.73729 2.38146 3.42992
upperneck -0.785226 2.77762 5.24207
head 0.513766 1.35804 1.09287
rclavicle -9.68081e-014 7.15625e-015
rhumerus -46.6701 1.85591 -86.1809
rradius 39.4877
rwrist -0.315002
rhand -18.0126 -4.16812
rfingers 7.12502
rthumb 8.25814 -33.9867
lclavicle -9.68081e-014 7.15625e-015
lhumerus -26.8497 7.14941 78.9969
lradius 29.5491
lwrist 17.4497
lhand -17.0736 10.4557
lfingers 7.12502
lthumb 9.16436 40.2366
rfemur -6.15809 -1.99071 24.9275
rtibia 30.1443
rfoot -26.4838 -17.5185
rtoes 6.45589
lfemur -2.38541 8.43256 -10.0278
ltibia 19.9535
lfoot -21.5016 32.2678
ltoes 8.762
3150
root 1.71888 16.5813 -4.87165 174.917 -49.6703 -172.355
lowerback 0.0400077 -1.68202 3.31748
upperback 2.84501 -2.34466 -0.0492289
thorax 2.76889 -1.11054 -1.9615
lowerneck -4.74068 2.43273 3.49909
upperneck -0.691248 2.84178 5.11932
head 0.545059 1.39349 1.04548
rclavicle -1.23495e-013 -2.38542e-015
rhumerus -46.6777 1.84983 -86.1212
rradius 39.3818
rwrist -0.241533
rhand -17.9399 -4.20143
rfingers 7.12502
rthumb 8.32833 -34.0173
lclavicle -1.23495e-013 -2.38542e-015
lhumerus -26.617 6.83046 79.2357
lradius 30.0074
lwrist 17.6144
lhand -17.0216 10.5537
lfingers 7.12502
lthumb 9.21452 40.3323
rfemur -6.10463 -2.03796 25.0716
rtibia 30.0902
rfoot -26.4202 -17.4081
rtoes 6.47007
lfemur -2.34151 8.38877 -9.8665
ltibia 19.986
lfoot -21.5053 32.4224
ltoes 8.84403
